<svg width="34" height="14" viewBox="0 0 34 14" fill="none" xmlns="http://www.w3.org/2000/svg">
<path d="M2.47883 2V6.44H11.1188C13.0388 6.44 13.9988 5.94 13.9988 4.94V3.58C13.9988 2.52667 13.1055 2 11.3188 2H2.47883ZM2.35883 12.38H11.7388C13.5522 12.38 14.4588 11.9133 14.4588 10.98V9.68C14.4588 8.61333 13.3522 8.08 11.1388 8.08H2.35883V12.38ZM16.0588 4.58C16.0588 5.83333 15.4055 6.7 14.0988 7.18C15.6988 7.68667 16.4988 8.63333 16.4988 10.02V10.7C16.4988 12.9 14.9122 14 11.7388 14H0.998829C0.572162 14 0.358829 13.7733 0.358829 13.32V1.04C0.358829 0.626666 0.572162 0.42 0.998829 0.42H11.2588C14.4588 0.42 16.0588 1.57333 16.0588 3.88V4.58ZM25.1354 14C20.9487 14 18.8554 12.8333 18.8554 10.5V1.14C18.8554 0.579999 19.1887 0.299999 19.8554 0.299999C20.5354 0.299999 20.8754 0.579999 20.8754 1.14V10.5C20.8754 11.7533 22.2687 12.38 25.0554 12.38H32.9754C33.4821 12.38 33.7354 12.6667 33.7354 13.24C33.7354 13.7467 33.4821 14 32.9754 14H25.1354Z" fill="#27AE60"/>
</svg>
