<svg width="176" height="19" viewBox="0 0 176 19" fill="none" xmlns="http://www.w3.org/2000/svg">
<path d="M3.524 2.4V8.172H14.756C17.252 8.172 18.5 7.522 18.5 6.222V4.454C18.5 3.08467 17.3387 2.4 15.016 2.4H3.524ZM3.368 15.894H15.562C17.9193 15.894 19.098 15.2873 19.098 14.074V12.384C19.098 10.9973 17.6593 10.304 14.782 10.304H3.368V15.894ZM21.178 5.754C21.178 7.38333 20.3287 8.51 18.63 9.134C20.71 9.79267 21.75 11.0233 21.75 12.826V13.71C21.75 16.57 19.6873 18 15.562 18H1.6C1.04533 18 0.768 17.7053 0.768 17.116V1.152C0.768 0.614666 1.04533 0.345999 1.6 0.345999H14.938C19.098 0.345999 21.178 1.84533 21.178 4.844V5.754ZM27.8295 17.012C27.8295 17.74 27.3875 18.104 26.5035 18.104C25.6195 18.104 25.1775 17.74 25.1775 17.012V1.282C25.1775 0.553999 25.6369 0.189998 26.5555 0.189998C27.4049 0.189998 27.8295 0.553999 27.8295 1.282V17.012ZM39.8107 18C34.368 18 31.6467 16.4833 31.6467 13.45V1.282C31.6467 0.553999 32.08 0.189998 32.9467 0.189998C33.8307 0.189998 34.2727 0.553999 34.2727 1.282V13.45C34.2727 15.0793 36.084 15.894 39.7067 15.894H50.0027C50.6613 15.894 50.9907 16.2667 50.9907 17.012C50.9907 17.6707 50.6613 18 50.0027 18H39.8107ZM56.1462 17.012C56.1462 17.74 55.7042 18.104 54.8202 18.104C53.9362 18.104 53.4942 17.74 53.4942 17.012V1.282C53.4942 0.553999 53.9535 0.189998 54.8722 0.189998C55.7215 0.189998 56.1462 0.553999 56.1462 1.282V17.012ZM88.8233 17.012C88.8233 17.7573 88.364 18.13 87.4453 18.13C86.6306 18.13 86.2233 17.7573 86.2233 17.012V4.116L76.3173 17.194C75.832 17.8353 75.2426 18.1473 74.5493 18.13C73.752 18.13 73.1366 17.818 72.7033 17.194L62.6413 4.142V17.012C62.6413 17.7573 62.2166 18.13 61.3673 18.13C60.5006 18.13 60.0673 17.7573 60.0673 17.012V1.698C60.0673 0.692665 60.5613 0.189998 61.5493 0.189998C62.2426 0.189998 62.8233 0.493332 63.2913 1.1L74.5753 15.53L85.6513 0.969999C85.842 0.727333 86.0846 0.536666 86.3793 0.397999C86.674 0.259332 86.9686 0.189998 87.2633 0.189998C88.3033 0.189998 88.8233 0.709999 88.8233 1.75V17.012ZM100.58 18C95.1369 18 92.4156 16.4833 92.4156 13.45V1.282C92.4156 0.553999 92.8489 0.189998 93.7156 0.189998C94.5996 0.189998 95.0416 0.553999 95.0416 1.282V13.45C95.0416 15.0793 96.8529 15.894 100.476 15.894H110.772C111.43 15.894 111.76 16.2667 111.76 17.012C111.76 17.6707 111.43 18 110.772 18H100.58ZM130.253 10.564H118.969C117.045 10.564 116.083 11.1707 116.083 12.384V14.23C116.083 15.374 117.106 15.946 119.151 15.946H127.289C129.265 15.946 130.253 15.0793 130.253 13.346V10.564ZM132.619 14.048C132.619 16.6827 130.695 18 126.847 18H119.645C115.606 18 113.587 16.7347 113.587 14.204V12.436C113.587 9.81867 115.563 8.51 119.515 8.51H130.227C130.071 7.17533 129.074 6.508 127.237 6.508H124.247C123.658 6.508 123.363 6.16133 123.363 5.468C123.363 4.80933 123.658 4.48 124.247 4.48H126.847C130.695 4.48 132.619 5.832 132.619 8.536V14.048ZM153.726 17.038C153.726 17.766 153.31 18.13 152.478 18.13C151.646 18.13 151.23 17.766 151.23 17.038V8.172C151.23 7.06267 150.112 6.508 147.876 6.508H141.714C139.461 6.508 138.334 7.06267 138.334 8.172V17.038C138.334 17.766 137.927 18.13 137.112 18.13C136.298 18.13 135.89 17.766 135.89 17.038V8.172C135.89 5.71067 138.057 4.48 142.39 4.48H147.148C151.534 4.48 153.726 5.71067 153.726 8.172V17.038ZM172.849 6.534H163.255C160.741 6.534 159.485 7.33133 159.485 8.926V13.762C159.485 15.218 160.689 15.946 163.099 15.946H168.767C171.488 15.946 172.849 15.218 172.849 13.762V6.534ZM175.267 14.048C175.267 16.6827 172.97 18 168.377 18H163.775C159.285 18 157.041 16.7607 157.041 14.282V8.614C157.041 5.858 159.285 4.48 163.775 4.48H172.849V1.282C172.849 0.553999 173.239 0.189998 174.019 0.189998C174.851 0.189998 175.267 0.553999 175.267 1.282V14.048Z" fill="#27AE60"/>
</svg>
