<svg width="43" height="46" viewBox="0 0 43 46" fill="none" xmlns="http://www.w3.org/2000/svg">
<g clip-path="url(#clip0)">
<path fill-rule="evenodd" clip-rule="evenodd" d="M7.78618 5.62007C7.64025 5.49771 7.20244 5.02573 6.85905 4.75479C5.13356 3.33886 2.60112 2.72705 0.557996 3.76714C0.386305 3.83706 0.09443 3.98564 0 4.10801C0.824117 4.18667 2.42943 4.67612 3.23637 4.94707C3.45957 5.02573 3.62268 5.09566 3.82012 5.1918C4.23218 5.3666 4.54981 5.54141 4.93611 5.7337C5.74306 6.14449 7.08225 7.0797 7.78618 7.80514L8.56738 8.69664C8.97944 9.23854 9.22839 9.51823 9.58894 10.13C11.1685 12.8046 11.778 15.584 11.778 19.0014C11.778 19.5433 11.7265 19.9191 11.7265 20.4173C11.7265 20.9592 11.5033 22.5237 11.4346 23.0656L11.2372 24.3068C11.3574 24.2543 11.4346 24.1844 11.5806 24.062C11.675 23.9659 11.778 23.861 11.8724 23.7649C15.5209 20.0502 15.229 15.9598 12.2416 11.4061C12.0699 11.1614 11.9497 10.9866 11.8038 10.7331C10.7822 9.19484 9.49451 7.66529 9.49451 5.42779C9.49451 4.01186 10.3015 2.60468 11.3402 2.13271C12.2673 1.68695 13.2889 1.59081 14.2332 2.01034C15.3749 2.50854 16.0102 3.40005 16.0102 4.71108C16.0102 5.97842 15.4779 7.2108 14.1387 7.2108C13.8211 7.2108 13.4777 7.11466 13.2631 6.96607C12.9197 6.73883 12.8768 6.56402 12.894 6.29307C13.3318 6.19693 13.7009 6.17071 13.9928 5.87354C15.0659 4.88589 14.3104 3.25146 13.0228 3.25146C12.5849 3.25146 12.439 3.27768 12.0527 3.47871C10.5676 4.24785 10.5933 6.72135 11.8295 7.98868C12.6107 8.78405 13.2374 8.95885 14.3619 8.95885C14.8513 8.95885 15.3835 8.78405 15.7269 8.60924C15.9243 8.5131 16.1132 8.38199 16.2591 8.25963C16.7742 7.8838 17.1348 7.36812 17.4266 6.77379C17.5726 6.47662 17.8644 5.85606 17.8644 5.43653C18.2507 5.70747 18.5426 5.96094 19.2036 5.96094C19.9333 5.96094 20.9549 5.56763 21.4184 5.04321C21.5129 4.92085 22.0537 4.12549 21.5386 4.12549C21.3154 4.12549 20.4913 4.6499 19.0062 4.15171C17.6928 3.70595 17.5468 2.71831 16.9116 1.89672C16.4737 1.37231 15.9587 0.926552 15.332 0.611902C12.336 -0.952605 8.51587 0.664344 7.86345 4.4314C7.76043 4.95581 7.78618 5.13062 7.78618 5.62007Z" fill="#7FC241"/>
<path fill-rule="evenodd" clip-rule="evenodd" d="M16.2764 13.2239C16.2764 13.5473 17.1005 13.1015 17.7357 14.194C17.8559 14.3689 17.9074 14.5874 17.9074 14.867C17.9074 15.9596 18.0019 22.2263 17.7357 22.9955C17.5125 23.6423 16.9545 23.7646 16.2764 23.7646V24.2628H20.4141V23.7646C18.4225 23.7646 18.8346 22.7245 18.6886 21.6845C18.6114 21.2387 18.6629 15.9159 18.6629 15.1904C19.3668 16.0295 20.2167 17.122 20.9292 18.0135L25.0669 23.1878C26.0198 24.3765 25.7451 24.3065 26.5778 24.3065C26.5778 23.3189 26.5521 16.7287 26.6293 16.1344C26.7066 15.5663 26.5349 14.1241 26.9727 13.6784C27.2646 13.3812 27.7024 13.3288 28.166 13.3288V12.8043H24.0797V13.3288C25.0069 13.3288 25.5906 13.4249 25.7623 14.2727C25.9597 15.339 25.8825 20.3647 25.8825 21.6582C25.7365 21.5621 25.7623 21.5359 25.6421 21.4135C25.5648 21.2911 25.5219 21.2387 25.4189 21.1426L23.1354 18.3457C22.5774 17.6989 21.8907 16.7812 21.3327 16.1431C21.161 15.9683 21.0408 15.7935 20.8949 15.6012L18.826 13.1015C18.7487 13.0054 18.68 12.8306 18.5341 12.8306H16.2935V13.2239H16.2764ZM28.6896 13.1802C28.6896 13.4773 29.5652 13.2064 30.149 13.556C30.5353 13.7833 30.5611 14.4213 30.5611 15.0156V22.0778C30.5611 23.4675 30.3379 23.7646 28.6896 23.7646V24.2628H34.1923C34.1923 23.616 34.3125 23.8171 33.4884 23.7209C32.9561 23.6423 32.4926 23.5986 32.3896 23.0042C32.2694 22.4099 32.2694 14.7796 32.3638 14.1066C32.484 13.4336 33.1708 13.3637 33.8232 13.3375C34.2352 13.3113 34.1923 13.4336 34.1923 12.8131H28.6896V13.1802ZM34.8705 15.5051C34.8705 16.5714 35.0422 17.1395 35.9865 17.8562C36.3041 18.1009 36.5187 18.232 36.9136 18.4243C37.257 18.5991 37.5746 18.7739 37.9352 18.9225C39.3259 19.4906 41.2231 20.1112 41.2231 21.6932C41.2231 22.9081 40.1071 23.651 38.8881 23.651C37.7721 23.651 37.1111 23.5549 36.2097 22.7857C35.48 22.1389 35.3341 21.4747 35.0937 20.924C34.3383 21.0989 34.3898 20.8279 34.5786 21.8418L34.8963 23.2577C34.9907 23.7297 34.9735 23.7035 35.9178 24.0006C36.141 24.0531 36.4071 24.0968 36.6217 24.1492C38.5447 24.4988 41.12 24.2978 42.4592 22.6371C42.8455 22.1389 42.9915 21.6932 42.9915 20.9503C42.9915 19.6392 41.8497 18.94 40.9741 18.4243C40.8539 18.3719 40.7509 18.3282 40.6307 18.2757C39.4632 17.7076 37.8579 17.2881 37.0081 16.3966L36.9565 16.3442C36.2526 15.5488 36.4672 14.3601 37.1797 13.8707C38.2957 13.0491 40.5878 13.1015 41.3862 14.7359C41.5064 14.937 41.678 15.3303 41.7553 15.575C41.927 15.575 42.1931 15.4963 42.3906 15.4963L42.1931 14.3077C42.1416 13.9581 42.0472 13.4686 42.0214 13.119C41.678 13.119 40.6822 12.7432 39.1971 12.7432C37.6605 12.7432 35.6946 13.3375 35.0594 14.7709C34.9907 14.937 34.8705 15.3128 34.8705 15.5051Z" fill="#88593E"/>
<path fill-rule="evenodd" clip-rule="evenodd" d="M10.9711 29.2536L10.9282 31.4649C10.9024 32.0592 10.7822 32.1816 10.3444 32.1816V32.4088H11.9497V32.1816C11.2887 32.1816 11.2716 31.9543 11.2887 30.9929C11.2887 30.3985 11.2887 29.8042 11.2887 29.2099C11.3832 29.2885 11.5119 29.4808 11.6064 29.6032L13.5808 32.1029C13.8469 32.4525 13.804 32.4962 14.0959 32.4962C14.2933 32.4962 14.2418 32.2515 14.2418 32.0242V29.0788C14.2676 28.4582 14.3362 28.3096 14.8256 28.3096V28.0649H13.2203V28.3096C13.4864 28.3096 13.7096 28.3358 13.804 28.5369C13.9242 28.8078 13.8813 30.5471 13.8813 30.9404C13.7353 30.8443 13.4177 30.416 13.2718 30.25L11.7609 28.4145C11.3917 27.9687 11.6836 28.0649 10.25 28.0649C10.2758 28.4844 10.4217 28.1436 10.7822 28.4844C10.9539 28.6592 10.9711 28.9564 10.9711 29.2536ZM28.9128 37.7841C28.9128 39.0689 30.252 39.5933 31.0504 38.999C31.1448 38.9203 31.5397 38.6494 31.4624 38.527C31.3165 38.256 31.3422 38.6493 30.561 38.6493C30.3378 38.6493 30.0717 38.4221 29.9515 38.256C29.6597 37.7841 29.6597 36.6915 30.1747 36.473C30.5439 36.2982 30.9988 36.8663 31.0504 36.8663C31.5654 36.8663 31.6084 36.0972 30.7327 36.0972C30.003 36.0972 28.9128 36.8139 28.9128 37.7841ZM19.4183 44.4704C19.4183 44.9948 19.444 45.2133 19.8304 45.6066C20.5858 46.3757 21.822 45.8513 21.9679 45.257L21.8735 45.1608C21.7275 45.2133 21.2897 45.5804 20.8004 45.3094C19.9505 44.8375 20.2682 43.203 20.7231 43.203C21.3326 43.203 21.3326 43.5963 21.5988 43.5963C21.8906 43.5963 22.0881 43.0981 21.5988 42.9233C20.7832 42.6349 19.4183 43.4303 19.4183 44.4704ZM39.6864 29.6294C40.0555 29.6556 40.1242 29.8566 40.2702 30.1538C40.3903 30.3985 40.4934 30.6957 40.5878 30.9492L41.0771 32.1641C41.3947 33.0294 41.6093 32.0854 41.7381 31.7708C41.8583 31.4998 41.9613 31.2289 42.0815 30.9492C42.1759 30.6782 42.3047 30.451 42.3991 30.1538C42.5193 29.8566 42.6652 29.6556 43.0086 29.6294V29.4546H41.8068V29.6294C42.588 29.7081 41.7295 30.6171 41.6609 31.36C41.5407 31.2638 41.4377 30.888 41.3432 30.6433C41.12 29.9965 40.8797 29.6731 41.3432 29.6294V29.4546H39.6864V29.6294V29.6294ZM24.3544 29.577C24.3544 30.0227 24.6978 29.6556 24.6978 30.1189V31.7533C24.6978 32.47 24.3115 31.9019 24.3115 32.4001H26.0885V32.2253C25.9426 32.1728 25.7966 32.1466 25.6507 32.1291C25.5305 31.8582 25.479 30.5209 25.6507 30.2674C25.891 29.8479 26.1829 30.2674 26.3117 30.2674C27.1186 30.2674 26.7495 28.7292 25.8996 29.5944C25.7022 29.8217 25.6764 29.944 25.5562 30.014V29.341C25.1871 29.4546 24.818 29.577 24.3544 29.577ZM35.0422 43.7537C35.0422 44.7675 36.2097 44.5927 36.4071 45.2395C36.5273 45.659 36.0208 46.0349 35.5057 45.4668C35.3856 45.3444 35.2139 45.0909 35.1881 44.8986C35.0679 44.8986 35.0679 44.9249 34.9477 44.9511C34.9477 45.1783 35.025 45.6678 35.0937 45.8164C35.3169 46.0436 37.1368 46.2883 37.1368 44.9948C37.1368 44.0508 35.7289 44.1033 35.7289 43.4827C35.7289 42.9845 36.6046 42.9146 36.802 43.8061C36.8793 43.7537 36.9479 43.7537 37.0252 43.71C36.8535 43.3603 37.1711 42.766 36.0723 42.8884C35.5487 42.9321 35.0422 43.1855 35.0422 43.7537ZM32.1663 35.7738V36.1933C31.9947 36.1933 31.7972 36.1409 31.7285 36.4643C31.8487 36.5429 31.9517 36.5167 32.1663 36.5167V38.5445C32.1663 39.165 32.8016 39.3835 33.3596 39.1388C33.5055 39.0601 33.6772 38.964 33.8232 38.964C33.8232 38.8416 33.8232 38.8416 33.7974 38.7368C32.9733 38.8154 33.0162 38.9815 33.0162 36.508C33.8232 36.508 33.7459 36.5604 33.7459 36.1846H33.0162V35.2144C32.793 35.2144 32.7243 35.3368 32.5527 35.4417C32.4582 35.5029 32.1663 35.6514 32.1663 35.7738ZM17.1348 35.6777V36.2021C16.6455 36.2021 16.6455 36.5255 16.8429 36.5255H17.1348V38.4308C17.1348 38.999 17.4524 39.2524 17.9589 39.2524C17.9589 39.2524 18.929 39.0776 18.783 38.8329C18.6629 38.5969 18.0276 39.1213 18.0276 38.326V36.5167C18.3967 36.5167 18.7573 36.5954 18.7573 36.3157C18.7573 36.1147 18.5169 36.1933 18.0276 36.1933C18.0276 35.127 18.1049 35.0571 17.6413 35.3718C17.4954 35.4766 17.2979 35.6514 17.1348 35.6777ZM18.1735 30.3024C18.268 30.3286 18.268 30.3548 18.3967 30.3548C18.4225 30.2063 18.6371 29.8829 18.783 29.7867C18.9547 29.7081 19.341 29.6906 19.6072 29.6906C19.5556 29.8129 19.5299 29.8654 19.4612 29.9615L18.4139 31.8407C18.0018 32.5137 17.9503 32.4088 18.929 32.4088C19.487 32.4088 20.0278 32.4088 20.5858 32.4088C20.6631 32.1379 20.8519 31.7183 20.8519 31.5435C20.7747 31.5173 20.7747 31.4911 20.7317 31.4474C20.4914 31.6222 20.56 31.8407 20.2167 32.0417C19.9505 32.1903 19.6329 32.1379 19.2466 32.1379C19.2981 31.9631 19.487 31.6659 19.59 31.4911L20.3454 30.1538C20.4399 29.979 20.6631 29.6294 20.6888 29.4633H18.9891C18.6199 29.4371 18.7916 29.3148 18.4053 29.3148C18.3967 29.6032 18.1993 30.0752 18.1735 30.3024ZM21.8735 34.7337V34.9085C22.0709 34.9085 22.0194 34.9347 22.1911 34.961C22.2426 35.1358 22.2855 35.2581 22.2855 35.4592C22.2855 35.9049 22.337 38.5794 22.2083 38.8329C22.1568 38.9553 21.9851 38.9553 21.8391 38.9815V39.1563H23.5646V38.9815C23.0496 38.9553 23.1268 38.7105 23.1268 38.2123V34.5239C22.9551 34.5239 22.689 34.6201 22.5173 34.6463C22.337 34.655 22.0709 34.7075 21.8735 34.7337ZM32.9475 41.4725V41.6473C33.1707 41.6735 33.3338 41.7259 33.3338 41.9706V45.3444C33.3338 45.6416 33.1622 45.7202 32.896 45.7202V45.895C33.0677 45.9912 34.3297 45.9475 34.6215 45.9475V45.7115C34.158 45.7115 34.1837 45.4143 34.1837 44.9423V41.2539C34.0721 41.2976 33.1707 41.4725 32.9475 41.4725ZM38.0811 30.4947H37.7635C37.7635 30.1713 37.9609 29.6294 38.227 29.6294C38.5704 29.6294 38.7164 29.8566 38.7164 30.3024C38.7164 30.4947 38.3472 30.4947 38.0811 30.4947ZM36.8621 31.0453C36.8621 32.4787 38.6391 33.0731 39.5147 31.762L39.3688 31.6397C38.0553 32.5049 37.6433 31.0191 37.7377 30.8443C37.815 30.7219 38.0296 30.7656 38.1755 30.7656L39.5147 30.617C39.5147 30.1451 39.489 29.9965 39.2744 29.7255C38.5447 28.834 36.8621 29.6294 36.8621 31.0453ZM20.5858 37.2334H19.8819C19.8819 36.3419 20.809 35.8699 20.809 37.181C20.706 37.2072 20.706 37.2334 20.5858 37.2334ZM18.9805 37.7841C18.9805 39.1475 20.4914 39.7157 21.4357 38.7717C21.676 38.527 21.6589 38.2997 21.264 38.527C20.706 38.8504 19.8561 38.6056 19.8304 37.5568L20.7832 37.4782C21.4614 37.382 21.6074 37.6005 21.6074 37.1023C21.6074 36.3856 20.56 35.4941 19.4698 36.6303C19.2209 36.8926 18.9805 37.3121 18.9805 37.7841ZM26.6722 37.2334C26.7495 37.0848 26.7495 36.8838 26.8439 36.709C27.0414 36.2895 27.3762 36.2633 27.5479 36.5866C27.5994 36.6653 27.668 36.9625 27.668 37.0586C27.6165 37.3383 27.2045 37.2334 26.6722 37.2334ZM25.8224 37.7841C25.8224 39.366 27.668 39.7157 28.4235 38.5532L28.3291 38.3784C27.9428 38.6493 27.917 38.6493 27.5221 38.6493C26.9899 38.6493 26.6722 38.1249 26.6722 37.5568L27.6423 37.4782C28.1059 37.3995 28.4664 37.5568 28.4664 37.1285C28.4664 36.1584 27.1015 35.6689 26.2773 36.6041C25.9855 36.9363 25.8224 37.3383 25.8224 37.7841ZM40.811 34.7337V34.9085C41.0084 34.9085 41.223 34.961 41.223 35.1358V38.7018C41.223 38.8766 40.9998 38.9465 40.811 38.9727V39.1475H42.5107V38.9727C42.3905 38.9465 42.2446 38.9203 42.1416 38.8766C42.0472 38.4046 42.1158 35.2581 42.1158 34.5152C41.927 34.5065 41.1286 34.7337 40.811 34.7337ZM23.7964 34.7337V34.9085C23.9681 34.9085 24.0625 34.961 24.1655 35.0047C24.2857 35.4766 24.2171 37.9239 24.2171 38.5969C24.2171 38.8679 24.0454 38.9727 23.7792 38.9727V39.1475H25.5047V38.9727C24.9897 38.9203 25.1184 38.7455 25.1184 38.2036V34.5152C24.921 34.5065 24.1398 34.7337 23.7964 34.7337ZM33.5313 29.6294C34.0206 29.6818 34.115 30.25 34.3812 30.8967C34.4584 31.0715 34.9392 32.3826 34.9392 32.5049C34.9392 32.8808 34.6215 33.1779 34.3297 33.3265C33.7717 33.6761 34.3297 33.9995 34.6215 33.9995C34.8447 33.9995 34.8877 33.6499 34.9392 33.5013C35.2053 32.706 35.9607 30.7482 36.3299 29.979C36.4243 29.7343 36.5273 29.6556 36.8449 29.6294V29.4546H35.6259V29.6294C36.1839 29.6818 35.9178 30.0489 35.7976 30.451C35.7204 30.6782 35.5572 31.3425 35.4113 31.4386C35.3856 31.1415 34.922 30.0489 34.922 29.8042C34.922 29.6556 35.0679 29.6294 35.2139 29.6294V29.4546H33.5313V29.6294ZM10.705 35.0571C10.9969 35.0571 11.2372 35.1358 11.2372 35.4504V38.4745C11.2372 38.6756 11.1857 38.8242 11.0398 38.8679C10.7994 38.9902 10.6964 38.7717 10.6964 39.1388H12.6708C12.6451 38.8679 12.6451 38.964 12.4047 38.8941C12.233 38.8416 12.1644 38.7979 12.1644 38.5969V35.398C12.1644 35.127 12.3876 35.0484 12.6794 35.0484V34.8211H10.705V35.0571V35.0571ZM38.6219 38.2298C38.6219 38.2036 38.6734 38.0288 38.6992 38.0026C38.7507 37.8802 38.7936 37.8802 38.8966 37.8015C39.0426 37.7054 39.1885 37.6267 39.3602 37.5568C39.3602 38.1512 39.4546 38.7455 39.1198 38.7455C38.785 38.7455 38.6219 38.4221 38.6219 38.2298ZM37.7635 36.8663C37.815 36.9625 37.8407 37.0411 37.9094 37.0936C38.0296 37.2159 38.1498 37.1897 38.2957 37.1897C38.5189 37.1897 38.4932 36.945 38.5618 36.7702C38.7335 36.272 39.1713 36.3507 39.2915 36.744C39.343 36.8926 39.343 37.1198 39.343 37.3383L37.9523 37.8802C37.4373 38.2735 37.7806 39.2437 38.6563 39.2437C38.8795 39.2437 39.1885 38.9727 39.3602 38.8679C39.7036 39.4884 40.0641 39.165 40.3303 39.0427C40.4075 39.0164 40.4762 38.9902 40.5277 38.964C40.605 38.9116 40.7938 38.8154 40.605 38.7193C40.4848 38.6406 40.4075 38.8154 40.2616 38.6406C39.8753 38.2211 40.605 36.7789 39.7465 36.2633C39.5233 36.1147 39.2572 36.0622 38.9653 36.1409C38.5704 36.272 37.9867 36.4643 37.7635 36.8663ZM15.89 31.5348C15.89 31.1152 15.9845 31.1152 16.5682 30.8181C16.5682 30.9929 16.6197 31.8057 16.491 31.9368C16.3279 32.1029 15.89 31.8844 15.89 31.5348ZM15.0402 30.1713C15.0402 30.3723 15.3063 30.4422 15.5295 30.4422C15.7527 30.4422 15.7527 30.1713 15.7956 30.0227C15.9416 29.5507 16.4051 29.5507 16.5253 29.9703C16.6026 30.1451 16.5768 30.3898 16.5768 30.5908L15.6497 30.9404C15.0144 31.1415 14.9887 31.2638 14.9887 31.762C14.9887 32.1379 15.478 32.5049 15.8385 32.5049C16.1562 32.5049 16.3708 32.2078 16.6455 32.1291C16.7227 32.3738 17.0146 32.5049 17.1348 32.5049C17.2292 32.5049 17.5211 32.3301 17.5984 32.2777C18.0877 32.0505 17.916 32.1816 17.916 31.9543C17.2807 31.9543 17.4009 31.8756 17.4009 30.4422C17.4267 29.2536 16.5253 29.1574 15.6239 29.6207C15.4007 29.7255 15.0402 29.8479 15.0402 30.1713ZM31.5826 31.5348C31.5826 31.1152 31.8487 31.0366 32.2608 30.8181C32.2608 31.2638 32.3552 32.0068 32.0891 32.0068C31.8316 32.0068 31.5826 31.8057 31.5826 31.5348ZM30.7327 30.1276C30.7327 30.3723 30.9989 30.451 31.2478 30.451C31.6169 30.451 31.3251 29.6818 31.9517 29.6818C32.3638 29.6818 32.2694 30.451 32.2694 30.5996L31.368 30.9492C30.8529 31.0978 30.707 31.2201 30.707 31.6921C30.707 32.1903 31.2392 32.5137 31.5568 32.5137C31.8745 32.5137 32.0891 32.2165 32.3638 32.1379C32.4153 32.3826 32.7329 32.5137 32.8531 32.5137C32.8789 32.5137 33.5828 32.1903 33.6601 32.1379C33.6086 32.0592 33.6343 32.0854 33.6086 31.963C33.4111 31.963 33.2909 31.9893 33.1965 31.8669C32.9304 31.4736 33.3682 30.1363 32.9046 29.6644C32.4411 29.1924 31.8831 29.3672 31.368 29.6119C31.1705 29.6993 30.7327 29.9003 30.7327 30.1276ZM22.0709 31.5348C22.0709 31.1152 22.1654 31.1152 22.7319 30.8181C22.7319 31.0453 22.7319 31.2638 22.7319 31.4911C22.7319 31.6134 22.8092 32.0155 22.5602 32.0155C22.2941 32.0068 22.0709 31.8057 22.0709 31.5348ZM21.2211 30.0752C21.2211 30.3723 21.4185 30.451 21.7104 30.451C22.0795 30.451 21.7876 29.6818 22.4143 29.6818C22.7577 29.6818 22.7319 30.2762 22.7319 30.451C22.7319 30.6258 22.5087 30.6782 22.3885 30.7219C22.2169 30.8006 22.0452 30.8443 21.8992 30.923C21.1953 31.1677 21.1695 31.2201 21.1695 31.762C21.1695 32.1379 21.6589 32.5049 22.0194 32.5049C22.2598 32.5049 22.5774 32.234 22.7749 32.1291C23.1612 32.7235 23.4788 32.4263 23.7707 32.2777C24.26 32.0505 24.0625 32.1816 24.0625 31.9543C23.453 31.9543 23.5732 31.8756 23.5732 30.4422C23.6076 28.4932 21.2211 29.7518 21.2211 30.0752ZM26.9384 44.4441C26.9384 42.7136 27.6938 42.9321 27.9342 43.5526C28.1059 43.9459 28.1316 44.7675 28.0286 45.2133C27.8655 46.1572 26.9384 45.8601 26.9384 44.4441ZM25.9683 44.4704C25.9683 44.9686 26.2087 45.4405 26.5263 45.6853C27.2045 46.2272 29.0587 46.2272 29.0587 44.2956C29.0587 43.474 28.2775 42.7835 27.4534 42.8622C26.5521 42.9583 25.9683 43.6313 25.9683 44.4704ZM30.5181 44.4441C30.5181 42.6349 31.3251 43.0107 31.5139 43.5526C31.7371 44.0945 31.8058 45.7552 31.1963 45.7552C30.6812 45.7552 30.5181 44.9686 30.5181 44.4441ZM29.5395 44.4704C29.5395 45.2657 30.149 45.9824 30.9302 45.9824C31.4452 45.9824 31.8316 45.9562 32.2436 45.5105C33.2394 44.4179 32.2179 42.2154 30.4409 43.037C29.8829 43.2555 29.5395 43.8236 29.5395 44.4704ZM34.0206 36.272V36.473C34.1408 36.473 34.2438 36.4992 34.3382 36.5517C34.3382 37.9414 34.0464 39.2524 35.2654 39.2524C35.4371 39.2524 35.6517 39.1738 35.7547 39.1038C35.9264 39.0252 36.0208 38.8766 36.1667 38.8329V39.2524C36.4586 39.2262 37.0424 39.0252 37.4544 39.0252C37.4544 38.7018 37.36 38.8242 37.0681 38.7542C36.9737 38.3085 37.0166 36.7265 37.0166 36.1496L35.7547 36.272V36.473C36.0723 36.473 36.1667 36.473 36.1667 37.0674V38.4833C36.1667 38.7805 35.2139 39.0077 35.2139 38.2123V36.1584L34.0206 36.272ZM16.0617 42.7573C16.0617 44.0683 18.0362 44.0421 18.0362 45.0647C18.0362 45.8863 16.8944 46.1572 16.3364 44.9161C16.2163 44.6189 16.2592 44.6452 15.9931 44.7151C15.9931 45.1346 16.139 45.5367 16.1648 45.8076C16.6283 45.8338 16.2849 45.9824 17.4524 45.9824C17.8645 45.9824 18.2079 45.8076 18.4482 45.6066C18.6457 45.458 18.8861 45.0647 18.8861 44.7151C18.8861 43.7449 17.8387 43.4303 17.3494 43.1069C16.1819 42.3115 17.4439 41.2277 18.1049 42.0406C18.3023 42.2416 18.3281 42.4164 18.4482 42.6611C18.5684 42.6087 18.4997 42.6087 18.6714 42.6087C18.6714 42.2853 18.5255 41.9881 18.5255 41.6385C17.8473 41.4899 17.1348 41.3676 16.5339 41.8395C16.3021 41.9881 16.0617 42.364 16.0617 42.7573ZM13.1172 36.3157C13.1172 36.7615 13.4349 36.4118 13.4349 36.7352V38.7455C13.4349 38.9203 13.1687 38.9727 12.9713 38.9727V39.1475H14.6281V38.9727C14.4822 38.9465 14.3362 38.8941 14.3362 38.7455V36.8663C14.3362 36.6216 15.2634 36.3244 15.2634 37.1897V38.6493C15.2634 38.8941 15.1432 38.9203 14.9457 38.9727V39.1475H16.5253V38.9727C16.0875 38.9203 16.1562 38.7717 16.1562 38.326C16.1562 37.7841 16.2334 36.8663 15.9587 36.4468C15.4265 35.6777 14.5509 36.4468 14.3277 36.5429V36.0972C13.9414 36.1933 13.5808 36.3157 13.1172 36.3157ZM28.5952 32.234C28.372 32.234 28.2518 32.1116 28.1831 31.8844C28.1316 31.6834 28.1574 30.1014 28.1574 29.8042C28.3291 29.8042 28.2518 29.7518 28.4235 29.7518C29.6425 29.7518 29.4193 32.234 28.5952 32.234ZM26.8869 28.2659V28.4932C27.4706 28.4932 27.2989 29.0351 27.2989 30.18C27.2989 30.8705 27.2989 31.5697 27.2989 32.2864C27.5221 32.2864 27.8827 32.5137 28.4149 32.5137C30.7241 32.5137 30.7241 29.3672 28.8527 29.3672C28.5608 29.3672 28.3634 29.542 28.1488 29.5944V28.0562C27.9857 28.1173 27.153 28.2659 26.8869 28.2659ZM22.1482 41.4725V41.6473C22.4658 41.6735 22.5602 41.7259 22.5602 42.0668V45.2657C22.5602 45.5891 22.4401 45.7115 22.1224 45.7115V45.9387H23.7277V45.7115C23.4874 45.6853 23.4101 45.5629 23.4101 45.3182V43.6051C23.4101 43.4303 23.3844 43.5789 23.4874 43.5089L23.5818 43.4303C23.9252 43.2292 24.363 43.3778 24.363 43.9022V45.4842C24.363 45.6328 24.1913 45.7115 24.0454 45.7115V45.9387H25.5992V45.7115C25.1356 45.659 25.23 45.4143 25.23 44.7238C25.23 43.8848 25.3502 42.9408 24.3802 42.8622C24.2085 42.8622 23.9681 42.9146 23.8479 42.9845C23.702 43.0632 23.556 43.2118 23.4101 43.2555V41.2452C23.0925 41.3239 22.4572 41.4725 22.1482 41.4725Z" fill="#808285"/>
</g>
<defs>
<clipPath id="clip0">
<rect width="43" height="46" fill="white"/>
</clipPath>
</defs>
</svg>
