<svg width="45" height="45" viewBox="0 0 45 45" fill="none" xmlns="http://www.w3.org/2000/svg">
<path fill-rule="evenodd" clip-rule="evenodd" d="M45 22.5C45 34.9299 34.9299 45 22.5 45C10.0701 45 0 34.9299 0 22.5C0 10.0701 10.0701 0 22.5 0C34.9299 0 45 10.0701 45 22.5Z" fill="#27AE60"/>
<path d="M9.74837 17.5976C9.74837 17.0235 9.30039 16.7585 8.40443 16.7585H6.43584C5.4894 16.7585 5.00356 17.0298 5.00356 17.5976V20.172C5.00356 20.6893 5.4894 20.9607 6.43584 20.9607H8.34764C9.27515 20.9607 9.74206 20.6893 9.74206 20.172V17.5976H9.74837ZM10.5686 20.172C10.5686 21.1373 9.76099 21.6232 8.13312 21.6232H6.6125C4.98463 21.6232 4.177 21.1373 4.177 20.172V17.5409C4.177 16.5944 4.98463 16.1086 6.6125 16.1086H8.13312C9.76099 16.1086 10.5686 16.5944 10.5686 17.5409V20.172ZM18.1338 21.1058C18.1338 21.3014 18.077 21.4276 17.9887 21.5159C17.8814 21.6042 17.7742 21.661 17.629 21.661C17.5723 21.661 17.5029 21.6421 17.4524 21.6232C17.383 21.5853 17.3073 21.5538 17.2568 21.497L12.3921 17.1497V21.3014C12.3921 21.5348 12.247 21.661 11.982 21.661C11.7107 21.661 11.5908 21.5348 11.5908 21.3014V16.5818C11.5908 16.4178 11.6476 16.2979 11.7548 16.2032C11.8621 16.1338 11.9693 16.096 12.0955 16.096C12.1649 16.096 12.2596 16.096 12.329 16.1338C12.3984 16.1527 12.4552 16.1906 12.5246 16.26L17.3388 20.519V16.4051C17.3388 16.1906 17.4839 16.0644 17.7679 16.0644C18.0202 16.0644 18.1464 16.1906 18.1464 16.4051V21.1058H18.1338ZM21.7681 21.6232C20.0709 21.6232 19.2254 21.1373 19.2254 20.1909V16.3988C19.2254 16.1843 19.3516 16.0581 19.6166 16.0581C19.9005 16.0581 20.0267 16.1843 20.0267 16.3988V20.1909C20.0267 20.7083 20.6009 20.9607 21.724 20.9607H24.9229C25.1375 20.9607 25.2447 21.0679 25.2447 21.3014C25.2447 21.5159 25.1375 21.6232 24.9229 21.6232H21.7681ZM26.8095 21.3014C26.8095 21.5348 26.6644 21.6421 26.3994 21.6421C26.1154 21.6421 25.9893 21.5348 25.9893 21.3014V16.3988C25.9893 16.1843 26.1344 16.0581 26.4183 16.0581C26.6896 16.0581 26.8095 16.1843 26.8095 16.3988V21.3014ZM34.5388 21.1058C34.5388 21.3014 34.482 21.4276 34.3936 21.5159C34.2864 21.6042 34.1791 21.661 34.034 21.661C33.9772 21.661 33.9078 21.6421 33.8573 21.6232C33.7879 21.5853 33.7122 21.5538 33.6617 21.497L28.797 17.1497V21.3014C28.797 21.5348 28.6519 21.661 28.3869 21.661C28.1219 21.661 27.9957 21.5348 27.9957 21.3014V16.5818C27.9957 16.4178 28.0525 16.2979 28.1598 16.2032C28.267 16.1338 28.3743 16.096 28.5005 16.096C28.5699 16.096 28.6456 16.096 28.7339 16.1338C28.8033 16.1527 28.8601 16.1906 28.9295 16.26L33.7437 20.519V16.4051C33.7437 16.1906 33.8889 16.0644 34.1728 16.0644C34.4252 16.0644 34.5514 16.1906 34.5514 16.4051V21.1058H34.5388ZM36.4001 18.5504H41.2458C41.4414 18.5504 41.5298 18.6766 41.5298 18.8911C41.5298 19.1056 41.4414 19.2318 41.2458 19.2318H36.4001V20.2666C36.4001 20.7335 36.8481 20.967 37.744 20.967H41.2522C41.4667 20.967 41.555 21.0742 41.555 21.2888C41.555 21.5033 41.4667 21.6295 41.2522 21.6295H37.7314C36.2991 21.6295 35.5861 21.1815 35.5861 20.2855V17.4778C35.5861 16.5629 36.337 16.1212 37.8008 16.1212H38.7472C38.9428 16.1212 39.0501 16.2285 39.0501 16.443C39.0501 16.6575 38.9428 16.7648 38.7472 16.7648H38.1226C36.9806 16.7648 36.4064 16.9982 36.4064 17.4778V18.5504H36.4001Z" fill="#FEFEFE"/>
<path d="M12.0892 28.633C12.0892 28.8286 11.963 28.9359 11.7106 28.9359C11.4771 28.9359 11.3699 28.8286 11.3699 28.633V25.1123L8.66936 28.6709C8.54317 28.8475 8.38543 28.9422 8.20245 28.9422C7.969 28.9422 7.81126 28.8538 7.68507 28.6709L4.9467 25.1312V28.6393C4.9467 28.8349 4.83944 28.9422 4.60598 28.9422C4.37253 28.9422 4.24634 28.8349 4.24634 28.6393V24.475C4.24634 24.1911 4.39146 24.0649 4.65646 24.0649C4.83313 24.0649 4.99718 24.1343 5.12337 24.3173L8.20245 28.2355L11.2058 24.2857C11.2626 24.2163 11.332 24.1595 11.4014 24.1217C11.4897 24.0838 11.5655 24.0649 11.6538 24.0649C11.9377 24.0649 12.0828 24.21 12.0828 24.475V28.633H12.0892ZM13.717 26.2227H17.9382C18.1022 26.2227 18.1905 26.33 18.1905 26.5067C18.1905 26.7023 18.1022 26.8095 17.9382 26.8095H13.717V27.7055C13.717 28.1156 14.0956 28.3302 14.878 28.3302H17.9382C18.1148 28.3302 18.2095 28.4185 18.2095 28.6015C18.2095 28.7971 18.1211 28.9043 17.9382 28.9043H14.8591C13.6098 28.9043 12.9788 28.5131 12.9788 27.7434V25.2763C12.9788 24.4876 13.6224 24.0964 14.9095 24.0964H15.7487C15.9128 24.0964 16.0011 24.1847 16.0011 24.3803C16.0011 24.557 15.9128 24.6517 15.7487 24.6517H15.1935C14.1903 24.6517 13.7107 24.8662 13.7107 25.2763V26.2227H13.717ZM20.4241 26.4373L23.9638 28.3302C24.0332 28.368 24.0711 28.4185 24.1089 28.4563C24.1279 28.5131 24.1468 28.5636 24.1468 28.6015C24.1468 28.6898 24.1279 28.7655 24.0585 28.8349C24.0017 28.8917 23.9323 28.9233 23.8439 28.9233C23.7871 28.9233 23.7367 28.9043 23.6673 28.8665L19.8563 26.7906V28.633C19.8563 28.8286 19.749 28.9359 19.5155 28.9359C19.2821 28.9359 19.1559 28.8286 19.1559 28.633V24.3425C19.1559 24.1469 19.2821 24.0586 19.5155 24.0586C19.749 24.0586 19.8563 24.1469 19.8563 24.3425V26.1281L23.4843 24.109C23.5537 24.0712 23.6294 24.0522 23.6799 24.0522C23.7682 24.0522 23.8565 24.0901 23.9133 24.1406C23.9827 24.21 24.0206 24.2857 24.0206 24.374C24.0206 24.4119 24.0017 24.4434 23.9827 24.5002C23.9638 24.5381 23.9133 24.5696 23.8565 24.6075L20.4241 26.4373ZM27.3647 24.6453V28.633C27.3647 28.8286 27.2385 28.9359 27.005 28.9359C26.7716 28.9359 26.6454 28.8286 26.6454 28.633V24.6453H24.6579C24.4812 24.6453 24.3866 24.557 24.3866 24.3614C24.3866 24.1847 24.4749 24.0901 24.6579 24.0901H29.327C29.5036 24.0901 29.5983 24.1784 29.5983 24.3614C29.5983 24.557 29.5099 24.6453 29.327 24.6453H27.3647ZM30.6709 26.2227H34.892C35.0687 26.2227 35.1444 26.33 35.1444 26.5067C35.1444 26.7023 35.075 26.8095 34.892 26.8095H30.6709V27.7055C30.6709 28.1156 31.0621 28.3302 31.8319 28.3302H34.892C35.0687 28.3302 35.1633 28.4185 35.1633 28.6015C35.1633 28.7971 35.075 28.9043 34.892 28.9043H31.8129C30.5636 28.9043 29.9516 28.5131 29.9516 27.7434V25.2763C29.9516 24.4876 30.5952 24.0964 31.8823 24.0964H32.7026C32.8793 24.0964 32.955 24.1847 32.955 24.3803C32.955 24.557 32.8856 24.6517 32.7026 24.6517H32.1474C31.1631 24.6517 30.6646 24.8662 30.6646 25.2763V26.2227H30.6709ZM41.0817 25.2195C41.0817 24.8409 40.7032 24.6453 39.9523 24.6453H36.7533V26.5382H39.9208C40.6905 26.5382 41.0817 26.3426 41.0817 25.9641V25.2195ZM41.7821 26.0082C41.7821 26.7591 41.1385 27.1376 39.8324 27.1376H36.7533V28.6393C36.7533 28.8349 36.6272 28.9422 36.3748 28.9422C36.1413 28.9422 36.0341 28.8349 36.0341 28.6393V24.3109C36.0341 24.1658 36.1035 24.0964 36.2675 24.0964H39.8451C41.1322 24.0964 41.7758 24.4561 41.7758 25.169V26.0082H41.7821Z" fill="#FEFEFE"/>
</svg>
